<mxfile host="app.diagrams.net" agent="Mozilla/5.0 (Windows NT 10.0; Win64; x64) AppleWebKit/537.36 (KHTML, like Gecko) Chrome/136.0.0.0 Safari/537.36" version="27.0.4">
  <diagram name="Page-1" id="LVuUzDhiJynAZCVvLe2o">
    <mxGraphModel dx="1426" dy="743" grid="1" gridSize="10" guides="1" tooltips="1" connect="1" arrows="1" fold="1" page="1" pageScale="1" pageWidth="850" pageHeight="1100" math="0" shadow="0">
      <root>
        <mxCell id="0" />
        <mxCell id="1" parent="0" />
        <mxCell id="K5qYiJ6dmNqq3phdOKwJ-5" style="edgeStyle=orthogonalEdgeStyle;rounded=0;orthogonalLoop=1;jettySize=auto;html=1;exitX=0.5;exitY=1;exitDx=0;exitDy=0;entryX=0.5;entryY=0;entryDx=0;entryDy=0;" edge="1" parent="1" source="K5qYiJ6dmNqq3phdOKwJ-1" target="K5qYiJ6dmNqq3phdOKwJ-2">
          <mxGeometry relative="1" as="geometry" />
        </mxCell>
        <mxCell id="K5qYiJ6dmNqq3phdOKwJ-6" style="edgeStyle=orthogonalEdgeStyle;rounded=0;orthogonalLoop=1;jettySize=auto;html=1;exitX=0.5;exitY=1;exitDx=0;exitDy=0;entryX=0.5;entryY=0;entryDx=0;entryDy=0;" edge="1" parent="1" source="K5qYiJ6dmNqq3phdOKwJ-1" target="K5qYiJ6dmNqq3phdOKwJ-3">
          <mxGeometry relative="1" as="geometry">
            <Array as="points">
              <mxPoint x="550" y="160" />
              <mxPoint x="860" y="160" />
            </Array>
          </mxGeometry>
        </mxCell>
        <mxCell id="K5qYiJ6dmNqq3phdOKwJ-1" value="AI-Fraud detection and Its Effects&amp;nbsp;" style="rounded=1;whiteSpace=wrap;html=1;" vertex="1" parent="1">
          <mxGeometry x="490" y="70" width="120" height="60" as="geometry" />
        </mxCell>
        <mxCell id="K5qYiJ6dmNqq3phdOKwJ-13" style="edgeStyle=orthogonalEdgeStyle;rounded=0;orthogonalLoop=1;jettySize=auto;html=1;exitX=0.5;exitY=1;exitDx=0;exitDy=0;entryX=0.5;entryY=0;entryDx=0;entryDy=0;" edge="1" parent="1" source="K5qYiJ6dmNqq3phdOKwJ-2" target="K5qYiJ6dmNqq3phdOKwJ-7">
          <mxGeometry relative="1" as="geometry">
            <Array as="points">
              <mxPoint x="280" y="280" />
              <mxPoint x="140" y="280" />
            </Array>
          </mxGeometry>
        </mxCell>
        <mxCell id="K5qYiJ6dmNqq3phdOKwJ-14" style="edgeStyle=orthogonalEdgeStyle;rounded=0;orthogonalLoop=1;jettySize=auto;html=1;exitX=0.5;exitY=1;exitDx=0;exitDy=0;entryX=0.5;entryY=0;entryDx=0;entryDy=0;" edge="1" parent="1" source="K5qYiJ6dmNqq3phdOKwJ-2" target="K5qYiJ6dmNqq3phdOKwJ-8">
          <mxGeometry relative="1" as="geometry" />
        </mxCell>
        <mxCell id="K5qYiJ6dmNqq3phdOKwJ-15" style="edgeStyle=orthogonalEdgeStyle;rounded=0;orthogonalLoop=1;jettySize=auto;html=1;exitX=0.5;exitY=1;exitDx=0;exitDy=0;entryX=0.5;entryY=0;entryDx=0;entryDy=0;" edge="1" parent="1" source="K5qYiJ6dmNqq3phdOKwJ-2" target="K5qYiJ6dmNqq3phdOKwJ-9">
          <mxGeometry relative="1" as="geometry">
            <Array as="points">
              <mxPoint x="280" y="280" />
              <mxPoint x="420" y="280" />
            </Array>
          </mxGeometry>
        </mxCell>
        <mxCell id="K5qYiJ6dmNqq3phdOKwJ-2" value="Enviornment Impact" style="rounded=0;whiteSpace=wrap;html=1;" vertex="1" parent="1">
          <mxGeometry x="220" y="190" width="120" height="60" as="geometry" />
        </mxCell>
        <mxCell id="K5qYiJ6dmNqq3phdOKwJ-17" style="edgeStyle=orthogonalEdgeStyle;rounded=0;orthogonalLoop=1;jettySize=auto;html=1;exitX=0.5;exitY=1;exitDx=0;exitDy=0;" edge="1" parent="1" source="K5qYiJ6dmNqq3phdOKwJ-3" target="K5qYiJ6dmNqq3phdOKwJ-10">
          <mxGeometry relative="1" as="geometry" />
        </mxCell>
        <mxCell id="K5qYiJ6dmNqq3phdOKwJ-18" style="edgeStyle=orthogonalEdgeStyle;rounded=0;orthogonalLoop=1;jettySize=auto;html=1;exitX=0.5;exitY=1;exitDx=0;exitDy=0;entryX=0.5;entryY=0;entryDx=0;entryDy=0;" edge="1" parent="1" source="K5qYiJ6dmNqq3phdOKwJ-3" target="K5qYiJ6dmNqq3phdOKwJ-11">
          <mxGeometry relative="1" as="geometry" />
        </mxCell>
        <mxCell id="K5qYiJ6dmNqq3phdOKwJ-19" style="edgeStyle=orthogonalEdgeStyle;rounded=0;orthogonalLoop=1;jettySize=auto;html=1;exitX=0.5;exitY=1;exitDx=0;exitDy=0;entryX=0.5;entryY=0;entryDx=0;entryDy=0;" edge="1" parent="1" source="K5qYiJ6dmNqq3phdOKwJ-3" target="K5qYiJ6dmNqq3phdOKwJ-12">
          <mxGeometry relative="1" as="geometry" />
        </mxCell>
        <mxCell id="K5qYiJ6dmNqq3phdOKwJ-20" style="edgeStyle=orthogonalEdgeStyle;rounded=0;orthogonalLoop=1;jettySize=auto;html=1;exitX=0.5;exitY=1;exitDx=0;exitDy=0;entryX=0.5;entryY=0;entryDx=0;entryDy=0;" edge="1" parent="1" source="K5qYiJ6dmNqq3phdOKwJ-3" target="K5qYiJ6dmNqq3phdOKwJ-16">
          <mxGeometry relative="1" as="geometry" />
        </mxCell>
        <mxCell id="K5qYiJ6dmNqq3phdOKwJ-22" style="edgeStyle=orthogonalEdgeStyle;rounded=0;orthogonalLoop=1;jettySize=auto;html=1;exitX=0.5;exitY=1;exitDx=0;exitDy=0;entryX=0.5;entryY=0;entryDx=0;entryDy=0;" edge="1" parent="1" source="K5qYiJ6dmNqq3phdOKwJ-3" target="K5qYiJ6dmNqq3phdOKwJ-21">
          <mxGeometry relative="1" as="geometry" />
        </mxCell>
        <mxCell id="K5qYiJ6dmNqq3phdOKwJ-24" style="edgeStyle=orthogonalEdgeStyle;rounded=0;orthogonalLoop=1;jettySize=auto;html=1;exitX=0.5;exitY=1;exitDx=0;exitDy=0;entryX=0.5;entryY=0;entryDx=0;entryDy=0;" edge="1" parent="1" source="K5qYiJ6dmNqq3phdOKwJ-3" target="K5qYiJ6dmNqq3phdOKwJ-23">
          <mxGeometry relative="1" as="geometry" />
        </mxCell>
        <mxCell id="K5qYiJ6dmNqq3phdOKwJ-3" value="Social Impact" style="rounded=0;whiteSpace=wrap;html=1;" vertex="1" parent="1">
          <mxGeometry x="800" y="200" width="120" height="60" as="geometry" />
        </mxCell>
        <mxCell id="K5qYiJ6dmNqq3phdOKwJ-7" value="Carbon emissions" style="rounded=0;whiteSpace=wrap;html=1;" vertex="1" parent="1">
          <mxGeometry x="80" y="300" width="120" height="60" as="geometry" />
        </mxCell>
        <mxCell id="K5qYiJ6dmNqq3phdOKwJ-8" value="Resource Efficiency" style="rounded=0;whiteSpace=wrap;html=1;" vertex="1" parent="1">
          <mxGeometry x="220" y="300" width="120" height="60" as="geometry" />
        </mxCell>
        <mxCell id="K5qYiJ6dmNqq3phdOKwJ-9" value="Ecosystem Impact" style="rounded=0;whiteSpace=wrap;html=1;" vertex="1" parent="1">
          <mxGeometry x="360" y="300" width="120" height="60" as="geometry" />
        </mxCell>
        <mxCell id="K5qYiJ6dmNqq3phdOKwJ-10" value="DEI" style="rounded=0;whiteSpace=wrap;html=1;" vertex="1" parent="1">
          <mxGeometry x="520" y="300" width="120" height="60" as="geometry" />
        </mxCell>
        <mxCell id="K5qYiJ6dmNqq3phdOKwJ-11" value="Human Right" style="rounded=0;whiteSpace=wrap;html=1;" vertex="1" parent="1">
          <mxGeometry x="660" y="300" width="120" height="60" as="geometry" />
        </mxCell>
        <mxCell id="K5qYiJ6dmNqq3phdOKwJ-12" value="Labour Management" style="rounded=0;whiteSpace=wrap;html=1;" vertex="1" parent="1">
          <mxGeometry x="800" y="300" width="120" height="60" as="geometry" />
        </mxCell>
        <mxCell id="K5qYiJ6dmNqq3phdOKwJ-16" value="Customer and Community" style="rounded=0;whiteSpace=wrap;html=1;" vertex="1" parent="1">
          <mxGeometry x="940" y="300" width="120" height="60" as="geometry" />
        </mxCell>
        <mxCell id="K5qYiJ6dmNqq3phdOKwJ-21" value="Data Privacy and Cybersecurity" style="rounded=0;whiteSpace=wrap;html=1;" vertex="1" parent="1">
          <mxGeometry x="1080" y="300" width="120" height="60" as="geometry" />
        </mxCell>
        <mxCell id="K5qYiJ6dmNqq3phdOKwJ-23" value="Health and Safety" style="rounded=0;whiteSpace=wrap;html=1;" vertex="1" parent="1">
          <mxGeometry x="1220" y="300" width="120" height="60" as="geometry" />
        </mxCell>
        <mxCell id="K5qYiJ6dmNqq3phdOKwJ-30" value="" style="endArrow=none;html=1;rounded=0;" edge="1" parent="1">
          <mxGeometry width="50" height="50" relative="1" as="geometry">
            <mxPoint x="219.99999999999955" y="280" as="sourcePoint" />
            <mxPoint x="220" y="280" as="targetPoint" />
          </mxGeometry>
        </mxCell>
      </root>
    </mxGraphModel>
  </diagram>
</mxfile>
